<?xml version="1.0" encoding="UTF-8"?>
<svg version="1.1" xmlns="http://www.w3.org/2000/svg" width="2000" height="2000">
<path d="M0 0 C0.78406219 -0.00067474 1.56812439 -0.00134949 2.37594604 -0.00204468 C14.2247645 0.01416106 25.6184036 0.47712858 37.1875 3.25 C37.91565918 3.41628906 38.64381836 3.58257812 39.39404297 3.75390625 C68.568964 10.56664457 94.9129753 25.36390325 116.53637695 45.96044922 C119.92019036 49.16307131 123.41015397 52.00598554 127.1875 54.75 C132.24587387 58.425796 136.7321064 62.44670476 141.25952148 66.73608398 C145.42743424 70.64571405 149.80661992 74.11563893 154.38256836 77.53100586 C158.19311202 80.40512319 161.71452117 83.47832012 165.1875 86.75 C169.18370519 90.51427374 173.29181007 93.96106335 177.6875 97.25 C182.63338557 100.95060322 187.17383234 104.91126819 191.66796875 109.14453125 C195.18132805 112.41813375 198.84387063 115.37412529 202.6875 118.25 C207.63338557 121.95060322 212.17383234 125.91126819 216.66796875 130.14453125 C220.18133777 133.4181428 223.84393478 136.37402965 227.6875 139.25 C232.60410095 142.93034369 237.12390555 146.8620599 241.59326172 151.06982422 C245.89480459 155.07791976 250.45663979 158.67338153 255.11035156 162.26098633 C259.51478643 165.67301872 263.65674985 169.29735951 267.76171875 173.06640625 C272.92040569 177.71005521 278.35848419 182.03708096 283.82421875 186.3125 C287.82545436 189.44976283 291.60280783 192.57747035 295.125 196.25 C298.86633432 200.11177969 302.99784564 203.08444035 307.3828125 206.17578125 C311.94032485 209.54630918 316.02817807 213.4078534 320.1875 217.25 C323.8724669 220.5673058 327.68534913 223.63765652 331.64770508 226.61987305 C337.57862937 231.09133247 343.06342064 235.82221335 348.45385742 240.93041992 C351.68905284 243.96283678 354.97549957 246.64941405 358.625 249.1875 C363.847515 252.83111512 368.32519685 257.02149141 372.92333984 261.39990234 C377.42568018 265.64644186 382.18069522 269.31403792 387.1953125 272.9453125 C391.12473493 275.97189113 394.66510117 279.33049221 398.26196289 282.73852539 C402.40454508 286.62462385 406.75559503 290.06730564 411.30786133 293.45629883 C415.38254428 296.52994572 419.1098454 299.86534621 422.8125 303.375 C426.58755278 306.9525764 430.34274903 310.2093606 434.625 313.1875 C439.87611719 316.84875929 444.37409978 321.07029991 448.99584961 325.47241211 C452.40347843 328.68619797 455.82958988 331.5721565 459.6875 334.25 C464.89380415 337.86612608 469.34422529 342.03975502 473.92138672 346.39794922 C478.44575099 350.66498022 483.22343285 354.36146394 488.26171875 358.01171875 C491.93169927 360.81932734 495.26051506 363.93035864 498.61767578 367.09423828 C502.14779557 370.38588294 505.82365972 373.36015989 509.6875 376.25 C514.60418401 379.93022255 519.12391764 383.86207128 523.59326172 388.06982422 C527.89480459 392.07791976 532.45663979 395.67338153 537.11035156 399.26098633 C541.51478643 402.67301872 545.65674985 406.29735951 549.76171875 410.06640625 C554.93295845 414.72135471 560.38804762 419.05218431 565.859375 423.34765625 C569.62468354 426.30855796 573.25701624 429.21434677 576.5625 432.6875 C579.43492645 435.66755836 582.53280042 438.05945737 585.875 440.5 C590.21734761 443.68114769 594.21169532 446.99602039 598.125 450.6875 C602.14196654 454.47359127 606.26700975 457.94399636 610.6875 461.25 C615.63346929 464.95048096 620.17384462 468.91127976 624.66796875 473.14453125 C628.18133777 476.4181428 631.84393478 479.37402965 635.6875 482.25 C640.60410095 485.93034369 645.12390555 489.8620599 649.59326172 494.06982422 C653.89212612 498.07542401 658.45098392 501.66872737 663.1015625 505.25439453 C668.36790194 509.33463469 673.28550386 513.74016355 678.1875 518.25 C681.31248944 521.06106356 684.47474809 523.73097572 687.875 526.20703125 C722.03607118 551.27271723 748.61933486 592.44691924 755.578125 634.6171875 C756.41553842 640.80963938 756.33990285 647.01473545 756.1875 653.25 C756.16961426 654.06162598 756.15172852 654.87325195 756.13330078 655.70947266 C756.06546756 658.43220892 755.97327029 661.15320352 755.875 663.875 C755.85260254 664.76485596 755.83020508 665.65471191 755.80712891 666.5715332 C755.77151855 667.40644287 755.7359082 668.24135254 755.69921875 669.1015625 C755.67303467 669.85260254 755.64685059 670.60364258 755.61987305 671.37744141 C755.1875 673.25 755.1875 673.25 752.1875 675.25 C750.98595386 677.74037166 749.90825416 680.19192378 748.875 682.75 C738.89621879 706.35840005 721.73306263 723.89298162 698.0859375 734.15625 C673.79545971 743.32246803 647.47247498 743.01789589 623.70703125 732.484375 C621.49426015 731.4002887 619.37021495 730.25306065 617.25 729 C614.43724276 727.12445307 614.43724276 727.12445307 611.890625 726.9921875 C608.00236745 725.92460234 605.67987747 723.37699423 602.875 720.625 C601.71684566 719.52140053 600.55799444 718.41853192 599.3984375 717.31640625 C598.84381836 716.78418457 598.28919922 716.25196289 597.71777344 715.70361328 C595.85685935 713.93592303 593.9427379 712.23959823 592 710.5625 C589.08394231 708.04297735 586.22434553 705.46978018 583.375 702.875 C579.97666448 699.80253227 576.51159477 696.86557378 572.9375 694 C567.17803574 689.34341188 561.80801301 684.32165823 556.41015625 679.2578125 C553.36955669 676.4077443 550.26401576 673.64511189 547.109375 670.921875 C544.77644926 668.89241927 542.48238755 666.822353 540.1875 664.75 C534.8205508 659.91161398 529.41493016 655.12779578 523.89453125 650.46484375 C517.75521859 645.26683683 511.81118015 640.03300709 506.1953125 634.26171875 C504.26168354 632.32432787 502.26542723 630.53049843 500.1875 628.75 C496.47744568 625.56995344 493.05772133 622.16238198 489.65625 618.65625 C487.62905036 616.68037187 485.57006628 614.83600449 483.42578125 612.9921875 C479.01540852 609.1660993 474.95460819 605.04748647 470.875 600.875 C464.59657864 594.52697762 458.2433191 588.72665958 451.1875 583.25 C450.00027344 582.22712891 450.00027344 582.22712891 448.7890625 581.18359375 C437.13640225 571.24677829 422.20714269 564.2730122 406.58203125 564.96875 C391.5124257 566.73875261 377.15163731 572.00178983 367.03125 583.75390625 C356.42555377 597.66398917 352.61033617 611.94851283 354.1875 629.25 C357.15830305 645.92700802 366.40152042 658.50243237 379.8671875 668.47265625 C383.34521611 671.13680274 386.53455688 674.09565839 389.765625 677.05078125 C391.97602404 679.05796619 394.22698007 681.00201499 396.5 682.9375 C399.77542412 685.78143112 402.40881389 688.91557667 405.1875 692.25 C407.0927674 693.99087486 409.05070806 695.65889709 411.015625 697.33203125 C413.34000398 699.38467527 415.51190594 701.54064672 417.6875 703.75 C421.09120276 707.20048906 424.61188989 710.41637394 428.2890625 713.5703125 C430.16720753 715.23204576 431.93055516 716.96125525 433.6875 718.75 C436.67287272 721.78254565 439.79830407 724.58833387 443.01953125 727.3671875 C445.43592951 729.4657532 447.81279024 731.604397 450.1875 733.75 C453.16812721 736.43983431 456.15995233 739.11310364 459.1875 741.75 C462.21504767 744.38689636 465.20687279 747.06016569 468.1875 749.75 C473.52312637 754.56014801 478.90336881 759.30980237 484.375 763.96484375 C491.21471235 769.78879498 497.93271015 775.70905144 504.53125 781.8046875 C509.05048847 785.96504527 513.68928609 789.97685535 518.3671875 793.95703125 C524.72277202 799.37072044 531.01287195 804.828019 537.12207031 810.51977539 C539.73093806 812.94552581 542.39001896 815.23396398 545.1875 817.4375 C548.14217487 819.9376095 549.54238648 822.48114932 551.09765625 825.9921875 C552.39537368 828.6806487 553.97671029 831.07411425 555.625 833.5625 C567.06772493 851.35140429 570.18987578 871.3959375 566.1875 892.1875 C563.01611554 903.48181731 557.07943653 914.5823603 549.1875 923.25 C548.52234375 923.99507812 547.8571875 924.74015625 547.171875 925.5078125 C542.27424058 930.70494255 537.00837979 934.46973848 531.0078125 938.3046875 C528.49297473 940.0392986 526.57287731 941.71589606 524.5 943.9375 C520.61512758 948.08409014 516.2233605 951.35923141 511.6875 954.75 C506.49701086 958.63678771 501.70879764 962.48967397 497.26171875 967.2265625 C492.82902728 971.55073233 487.76480358 975.18860176 482.86230469 978.95996094 C477.22094713 983.30528649 471.72145314 987.71829471 466.5 992.5625 C461.83310347 996.83252659 456.85020692 1000.4836417 451.71826172 1004.16113281 C447.98168097 1006.86234375 444.50067915 1009.65927087 441.125 1012.8125 C436.80631059 1016.84375584 432.19169872 1020.16392854 427.35253906 1023.52416992 C423.79203532 1026.02375934 420.54649877 1028.63179673 417.375 1031.625 C413.13135345 1035.59599051 408.59192746 1038.84666215 403.8125 1042.125 C398.53868515 1045.74823158 393.61988573 1049.44406665 389 1053.875 C384.35101237 1058.31353963 379.51980002 1061.98814938 374.25048828 1065.62597656 C370.71757188 1068.08781017 367.51471826 1070.66119125 364.375 1073.625 C360.13135345 1077.59599051 355.59192746 1080.84666215 350.8125 1084.125 C345.53868515 1087.74823158 340.61988573 1091.44406665 336 1095.875 C331.35101237 1100.31353963 326.51980002 1103.98814938 321.25048828 1107.62597656 C317.71757188 1110.08781017 314.51471826 1112.66119125 311.375 1115.625 C306.41688357 1120.27014563 300.96780918 1124.04745881 295.33862305 1127.82568359 C291.81300668 1130.22964333 288.67865277 1132.64374373 285.71484375 1135.72265625 C281.99636338 1139.58450099 277.83727233 1142.5256879 273.4375 1145.5625 C267.17331467 1149.97689707 261.51045453 1154.52129195 255.94921875 1159.79296875 C252.13559363 1163.18585446 248.03313469 1166.09924266 243.88525391 1169.06591797 C238.96018628 1172.61351944 234.34769621 1176.4258223 229.76147461 1180.3972168 C225.8255142 1183.78005481 221.72351368 1186.74596832 217.43359375 1189.65625 C214.60718481 1191.66177147 212.08825793 1193.91405333 209.515625 1196.23046875 C202.99703699 1201.88501573 196.08514939 1207.1518014 189.125 1212.25 C185.62698923 1214.83451751 182.3549192 1217.66244491 179.0625 1220.5 C174.56106913 1224.37555645 169.943957 1227.92963021 165.0625 1231.3125 C159.635158 1235.07731922 154.85220628 1239.21281692 150.03515625 1243.74609375 C146.32573794 1247.00773592 142.35497264 1249.76768615 138.29980469 1252.5769043 C134.77911368 1255.04052273 131.57137183 1257.60662777 128.4375 1260.5625 C123.28652694 1265.38142686 117.60860859 1269.31627363 111.85913086 1273.37548828 C107.46170381 1276.51173014 103.41128202 1279.71358478 99.5 1283.4375 C68.10741516 1312.88288972 23.4192156 1323.30068151 -18.40527344 1322.38183594 C-56.65973385 1320.90165475 -93.95047559 1304.21118808 -121.69921875 1278.1875 C-123.83859511 1276.17837824 -123.83859511 1276.17837824 -126.375 1274.2265625 C-130.00022817 1271.28687428 -132.82951231 1267.82337067 -135.8125 1264.25 C-136.43125 1263.51910156 -137.05 1262.78820313 -137.6875 1262.03515625 C-161.999093 1232.57695586 -175.94089259 1195.74105842 -176.05273438 1157.50048828 C-176.06227655 1155.5457733 -176.09338046 1153.59120127 -176.125 1151.63671875 C-176.15072584 1145.1602393 -175.87128569 1139.06089293 -174.72958183 1132.69728661 C-172.42603057 1119.69274808 -172.44696187 1106.87960804 -172.5546875 1093.7109375 C-172.56288161 1091.22311853 -172.56952329 1088.73529404 -172.57473755 1086.24746704 C-172.59176346 1079.68666471 -172.62579158 1073.12607307 -172.66479492 1066.56536865 C-172.73113994 1055.05147528 -172.76995636 1043.53746316 -172.8046875 1032.0234375 C-172.80919265 1030.68912249 -172.8137055 1029.35480751 -172.81822586 1028.02049255 C-172.88886652 1006.02411077 -172.67309835 984.03752344 -172.36394501 962.04350996 C-171.72546384 916.56693249 -171.65810351 871.09552929 -171.68393171 825.61502278 C-171.68834495 816.90931426 -171.68511441 808.20361983 -171.6803025 799.49791217 C-171.6757731 790.95355897 -171.67511598 782.40921192 -171.67774117 773.86485791 C-171.67928792 768.82671853 -171.67953945 763.78858887 -171.67620468 758.75045013 C-171.67332409 754.08404489 -171.67530488 749.41766686 -171.68109894 744.75126457 C-171.68241971 743.04763013 -171.68204401 741.3439934 -171.67983627 739.64035988 C-171.67710141 737.31715475 -171.68053282 734.99403697 -171.68551636 732.6708374 C-171.68589338 731.3743716 -171.68627041 730.07790581 -171.68665886 728.74215317 C-171.80425084 725.47891813 -172.2199106 722.45555428 -172.8125 719.25 C-173.75043992 707.28456645 -171.84127232 697.46393388 -167.8125 686.25 C-167.41675781 685.12078125 -167.02101563 683.9915625 -166.61328125 682.828125 C-164.01490167 676.02572265 -160.66746304 670.66126089 -155.8125 665.25 C-155.19375 664.55003906 -154.575 663.85007812 -153.9375 663.12890625 C-145.57534223 654.21039524 -133.22915815 647.08739274 -120.80810547 646.08886719 C-98.53748233 645.64948348 -78.72508126 647.85735829 -60.8125 662.25 C-59.43771484 663.28640625 -59.43771484 663.28640625 -58.03515625 664.34375 C-50.86738659 669.89299103 -45.43521675 676.21197612 -39.8125 683.25 C-38.57205225 684.67503819 -37.32316243 686.09281321 -36.0625 687.5 C-26.8125 698.0023753 -26.8125 698.0023753 -26.8125 701.25 C-26.21566406 701.51683594 -25.61882812 701.78367187 -25.00390625 702.05859375 C-22.76675676 703.27486932 -21.46829933 704.45357259 -19.75 706.3125 C-16.85038295 709.30485534 -13.80906912 711.95042442 -10.5625 714.5625 C-5.65459859 718.51440415 -0.98437752 722.6646865 3.65234375 726.9296875 C5.72075758 728.82281203 7.81155876 730.67251704 9.9375 732.5 C13.23551273 735.35692049 16.41104993 738.33021134 19.58496094 741.32299805 C25.23851314 746.65339042 30.91397928 751.76426273 37.0625 756.52734375 C39.6969509 758.66299237 41.99376127 761.03008245 44.34375 763.46875 C47.29592482 766.3208511 50.56298987 768.7629195 53.796875 771.28515625 C55.87006984 772.98910561 57.63175622 774.71303774 59.4375 776.6875 C75.22977098 792.92462369 100.62044765 801.01186575 122.70239258 801.53564453 C149.43731668 801.79814936 173.20430675 793.19668948 193.1875 775.25 C193.89390625 774.62609375 194.6003125 774.0021875 195.328125 773.359375 C213.21092588 756.60304976 223.08198212 731.40595983 224.40625 707.26171875 C225.27441898 678.97906668 215.2537463 653.85254245 196.19140625 633.07421875 C191.95906477 628.68859328 187.36312144 624.9369934 182.56640625 621.1875 C179.80343198 618.93719584 177.35002828 616.49867231 174.87109375 613.9453125 C171.32801985 610.37757683 167.44710459 607.18024089 163.62646484 603.91650391 C161.85480026 602.40306994 160.08349917 600.88921257 158.3125 599.375 C157.70639893 598.85695801 157.10029785 598.33891602 156.47583008 597.80517578 C152.05440547 594.01673924 147.70548564 590.15617194 143.39453125 586.2421875 C141.45123999 584.48806619 139.48390552 582.77027306 137.5 581.0625 C133.52214156 577.60804399 129.70828371 573.98761849 125.875 570.375 C120.59493094 565.40321315 115.20867769 560.72320373 109.5390625 556.19921875 C106.80955813 553.9367226 104.38585332 551.47986923 101.9296875 548.9296875 C99.95835891 547.02907922 97.86981308 545.40326748 95.6875 543.75 C92.12739998 541.05131166 89.01067214 538.17651962 85.90234375 534.9765625 C82.82860115 531.88181482 79.49460531 529.09058575 76.1875 526.25 C73.7272827 524.12717565 71.26954544 522.00149438 68.8125 519.875 C68.15950928 519.31006836 67.50651855 518.74513672 66.83374023 518.16308594 C62.29490501 514.22908863 57.80882088 510.24206795 53.359375 506.20703125 C51.42702519 504.46583115 49.4709207 502.75968171 47.5 501.0625 C44.18226182 498.1821918 40.9838436 495.18825913 37.7878418 492.17480469 C32.13486861 486.84531767 26.46020277 481.73510363 20.3125 476.97265625 C17.6780491 474.83700763 15.38123873 472.46991755 13.03125 470.03125 C10.86400501 467.93747095 8.55973477 466.10777422 6.1875 464.25 C2.48369274 461.34625987 -0.85463088 458.31789175 -4.12890625 454.9453125 C-7.67198015 451.37757683 -11.55289541 448.18024089 -15.37353516 444.91650391 C-17.14519967 443.40307 -18.91643307 441.88913317 -20.6875 440.375 C-21.29070068 439.8598584 -21.89390137 439.3447168 -22.51538086 438.81396484 C-26.99098441 434.9815221 -31.38222101 431.07092119 -35.7265625 427.08984375 C-37.78407054 425.21130196 -37.78407054 425.21130196 -40.0859375 423.62890625 C-40.65570312 423.17386719 -41.22546875 422.71882813 -41.8125 422.25 C-41.8125 421.59 -41.8125 420.93 -41.8125 420.25 C-42.39588135 419.99259033 -42.9792627 419.73518066 -43.58032227 419.4699707 C-46.00522655 418.14466755 -47.59289329 416.69772789 -49.52734375 414.73046875 C-50.21376953 414.03759766 -50.90019531 413.34472656 -51.60742188 412.63085938 C-52.31447266 411.90705078 -53.02152344 411.18324219 -53.75 410.4375 C-54.45318359 409.72529297 -55.15636719 409.01308594 -55.88085938 408.27929688 C-57.24905422 406.89315008 -58.61533032 405.50510623 -59.97949219 404.11499023 C-62.24279158 401.81220067 -64.52738898 399.53112304 -66.8125 397.25 C-67.46992187 396.58097656 -68.12734375 395.91195313 -68.8046875 395.22265625 C-71.93434699 392.04754527 -75.06812189 388.97368313 -78.5 386.125 C-80.72925808 384.26226408 -82.36453256 382.58473 -84.25 380.3125 C-86.29349656 377.8702724 -88.16871325 375.98661923 -90.5625 373.9375 C-98.92314906 366.7510994 -105.87862162 358.92073844 -112.44726562 350.08154297 C-113.88609238 348.15127146 -115.34001849 346.23310068 -116.796875 344.31640625 C-122.27967969 337.08594122 -127.65359852 329.80580202 -132.734375 322.28515625 C-134.05044388 320.36300302 -135.41070776 318.46977942 -136.828125 316.62109375 C-152.12078634 295.93987654 -157.96077049 265.26923245 -163.6875 240.5 C-163.86635742 239.72962402 -164.04521484 238.95924805 -164.22949219 238.16552734 C-164.80652595 235.53480295 -165.31404908 232.89680639 -165.8125 230.25 C-165.93704559 229.63271027 -166.06159119 229.01542053 -166.18991089 228.37942505 C-168.85566065 214.96246035 -169.2479767 201.81492899 -169.14868164 188.16137695 C-169.12500838 184.68872884 -169.12815747 181.21684968 -169.13476562 177.74414062 C-169.11525921 161.57245842 -168.58191288 145.574802 -164.625 129.8125 C-164.40924316 128.94109375 -164.19348633 128.0696875 -163.97119141 127.171875 C-153.10496295 84.89987577 -126.3241602 47.63682453 -88.9375 24.84375 C-61.38169917 8.61163962 -31.96762012 0.02463834 0 0 Z " fill="#ffffff" transform="translate(1201.8125,326.75)"/>
<path d="M0 0 C0.78406219 -0.00067474 1.56812439 -0.00134949 2.37594604 -0.00204468 C14.2247645 0.01416106 25.6184036 0.47712858 37.1875 3.25 C37.91565918 3.41628906 38.64381836 3.58257812 39.39404297 3.75390625 C68.568964 10.56664457 94.9129753 25.36390325 116.53637695 45.96044922 C119.92019036 49.16307131 123.41015397 52.00598554 127.1875 54.75 C132.24587387 58.425796 136.7321064 62.44670476 141.25952148 66.73608398 C145.42743424 70.64571405 149.80661992 74.11563893 154.38256836 77.53100586 C158.19311202 80.40512319 161.71452117 83.47832012 165.1875 86.75 C169.18370519 90.51427374 173.29181007 93.96106335 177.6875 97.25 C182.63338557 100.95060322 187.17383234 104.91126819 191.66796875 109.14453125 C195.18132805 112.41813375 198.84387063 115.37412529 202.6875 118.25 C207.63338557 121.95060322 212.17383234 125.91126819 216.66796875 130.14453125 C220.18133777 133.4181428 223.84393478 136.37402965 227.6875 139.25 C232.60410095 142.93034369 237.12390555 146.8620599 241.59326172 151.06982422 C245.89480459 155.07791976 250.45663979 158.67338153 255.11035156 162.26098633 C259.51478643 165.67301872 263.65674985 169.29735951 267.76171875 173.06640625 C272.92040569 177.71005521 278.35848419 182.03708096 283.82421875 186.3125 C287.82545436 189.44976283 291.60280783 192.57747035 295.125 196.25 C298.86633432 200.11177969 302.99784564 203.08444035 307.3828125 206.17578125 C311.94032485 209.54630918 316.02817807 213.4078534 320.1875 217.25 C323.8724669 220.5673058 327.68534913 223.63765652 331.64770508 226.61987305 C337.57862937 231.09133247 343.06342064 235.82221335 348.45385742 240.93041992 C351.68905284 243.96283678 354.97549957 246.64941405 358.625 249.1875 C363.847515 252.83111512 368.32519685 257.02149141 372.92333984 261.39990234 C377.42568018 265.64644186 382.18069522 269.31403792 387.1953125 272.9453125 C391.12473493 275.97189113 394.66510117 279.33049221 398.26196289 282.73852539 C402.40454508 286.62462385 406.75559503 290.06730564 411.30786133 293.45629883 C415.38254428 296.52994572 419.1098454 299.86534621 422.8125 303.375 C426.58755278 306.9525764 430.34274903 310.2093606 434.625 313.1875 C439.87611719 316.84875929 444.37409978 321.07029991 448.99584961 325.47241211 C452.40347843 328.68619797 455.82958988 331.5721565 459.6875 334.25 C464.89380415 337.86612608 469.34422529 342.03975502 473.92138672 346.39794922 C478.44575099 350.66498022 483.22343285 354.36146394 488.26171875 358.01171875 C491.93169927 360.81932734 495.26051506 363.93035864 498.61767578 367.09423828 C502.14779557 370.38588294 505.82365972 373.36015989 509.6875 376.25 C514.60418401 379.93022255 519.12391764 383.86207128 523.59326172 388.06982422 C527.89480459 392.07791976 532.45663979 395.67338153 537.11035156 399.26098633 C541.51478643 402.67301872 545.65674985 406.29735951 549.76171875 410.06640625 C554.93295845 414.72135471 560.38804762 419.05218431 565.859375 423.34765625 C569.62468354 426.30855796 573.25701624 429.21434677 576.5625 432.6875 C579.43492645 435.66755836 582.53280042 438.05945737 585.875 440.5 C590.21734761 443.68114769 594.21169532 446.99602039 598.125 450.6875 C602.14196654 454.47359127 606.26700975 457.94399636 610.6875 461.25 C615.63346929 464.95048096 620.17384462 468.91127976 624.66796875 473.14453125 C628.18133777 476.4181428 631.84393478 479.37402965 635.6875 482.25 C640.60410095 485.93034369 645.12390555 489.8620599 649.59326172 494.06982422 C653.89212612 498.07542401 658.45098392 501.66872737 663.1015625 505.25439453 C668.36790194 509.33463469 673.28550386 513.74016355 678.1875 518.25 C681.31248944 521.06106356 684.47474809 523.73097572 687.875 526.20703125 C722.03607118 551.27271723 748.61933486 592.44691924 755.578125 634.6171875 C756.41553842 640.80963938 756.33990285 647.01473545 756.1875 653.25 C756.16961426 654.06162598 756.15172852 654.87325195 756.13330078 655.70947266 C756.06546756 658.43220892 755.97327029 661.15320352 755.875 663.875 C755.85260254 664.76485596 755.83020508 665.65471191 755.80712891 666.5715332 C755.77151855 667.40644287 755.7359082 668.24135254 755.69921875 669.1015625 C755.67303467 669.85260254 755.64685059 670.60364258 755.61987305 671.37744141 C755.1875 673.25 755.1875 673.25 752.1875 675.25 C750.98595386 677.74037166 749.90825416 680.19192378 748.875 682.75 C738.89621879 706.35840005 721.73306263 723.89298162 698.0859375 734.15625 C673.79545971 743.32246803 647.47247498 743.01789589 623.70703125 732.484375 C621.49426015 731.4002887 619.37021495 730.25306065 617.25 729 C614.43724276 727.12445307 614.43724276 727.12445307 611.890625 726.9921875 C608.00236745 725.92460234 605.67987747 723.37699423 602.875 720.625 C601.71684566 719.52140053 600.55799444 718.41853192 599.3984375 717.31640625 C598.84381836 716.78418457 598.28919922 716.25196289 597.71777344 715.70361328 C595.85685935 713.93592303 593.9427379 712.23959823 592 710.5625 C589.08394231 708.04297735 586.22434553 705.46978018 583.375 702.875 C579.97666448 699.80253227 576.51159477 696.86557378 572.9375 694 C567.17803574 689.34341188 561.80801301 684.32165823 556.41015625 679.2578125 C553.36955669 676.4077443 550.26401576 673.64511189 547.109375 670.921875 C544.77644926 668.89241927 542.48238755 666.822353 540.1875 664.75 C534.8205508 659.91161398 529.41493016 655.12779578 523.89453125 650.46484375 C517.75521859 645.26683683 511.81118015 640.03300709 506.1953125 634.26171875 C504.26168354 632.32432787 502.26542723 630.53049843 500.1875 628.75 C496.47744568 625.56995344 493.05772133 622.16238198 489.65625 618.65625 C487.62905036 616.68037187 485.57006628 614.83600449 483.42578125 612.9921875 C479.01540852 609.1660993 474.95460819 605.04748647 470.875 600.875 C464.59657864 594.52697762 458.2433191 588.72665958 451.1875 583.25 C450.00027344 582.22712891 450.00027344 582.22712891 448.7890625 581.18359375 C437.13640225 571.24677829 422.20714269 564.2730122 406.58203125 564.96875 C391.5124257 566.73875261 377.15163731 572.00178983 367.03125 583.75390625 C356.42555377 597.66398917 352.61033617 611.94851283 354.1875 629.25 C357.15830305 645.92700802 366.40152042 658.50243237 379.8671875 668.47265625 C383.34521611 671.13680274 386.53455688 674.09565839 389.765625 677.05078125 C391.97602404 679.05796619 394.22698007 681.00201499 396.5 682.9375 C399.77542412 685.78143112 402.40881389 688.91557667 405.1875 692.25 C407.0927674 693.99087486 409.05070806 695.65889709 411.015625 697.33203125 C413.34000398 699.38467527 415.51190594 701.54064672 417.6875 703.75 C421.09120276 707.20048906 424.61188989 710.41637394 428.2890625 713.5703125 C430.16720753 715.23204576 431.93055516 716.96125525 433.6875 718.75 C436.67287272 721.78254565 439.79830407 724.58833387 443.01953125 727.3671875 C445.43592951 729.4657532 447.81279024 731.604397 450.1875 733.75 C453.16812721 736.43983431 456.15995233 739.11310364 459.1875 741.75 C462.21504767 744.38689636 465.20687279 747.06016569 468.1875 749.75 C473.52312637 754.56014801 478.90336881 759.30980237 484.375 763.96484375 C491.21471235 769.78879498 497.93271015 775.70905144 504.53125 781.8046875 C509.05048847 785.96504527 513.68928609 789.97685535 518.3671875 793.95703125 C524.72277202 799.37072044 531.01287195 804.828019 537.12207031 810.51977539 C539.73093806 812.94552581 542.39001896 815.23396398 545.1875 817.4375 C548.14217487 819.9376095 549.54238648 822.48114932 551.09765625 825.9921875 C552.39537368 828.6806487 553.97671029 831.07411425 555.625 833.5625 C567.06772493 851.35140429 570.18987578 871.3959375 566.1875 892.1875 C563.01611554 903.48181731 557.07943653 914.5823603 549.1875 923.25 C548.52234375 923.99507812 547.8571875 924.74015625 547.171875 925.5078125 C542.27424058 930.70494255 537.00837979 934.46973848 531.0078125 938.3046875 C528.49297473 940.0392986 526.57287731 941.71589606 524.5 943.9375 C520.61512758 948.08409014 516.2233605 951.35923141 511.6875 954.75 C506.49701086 958.63678771 501.70879764 962.48967397 497.26171875 967.2265625 C492.82902728 971.55073233 487.76480358 975.18860176 482.86230469 978.95996094 C477.22094713 983.30528649 471.72145314 987.71829471 466.5 992.5625 C461.83310347 996.83252659 456.85020692 1000.4836417 451.71826172 1004.16113281 C447.98168097 1006.86234375 444.50067915 1009.65927087 441.125 1012.8125 C436.80631059 1016.84375584 432.19169872 1020.16392854 427.35253906 1023.52416992 C423.79203532 1026.02375934 420.54649877 1028.63179673 417.375 1031.625 C413.13135345 1035.59599051 408.59192746 1038.84666215 403.8125 1042.125 C398.53868515 1045.74823158 393.61988573 1049.44406665 389 1053.875 C384.35101237 1058.31353963 379.51980002 1061.98814938 374.25048828 1065.62597656 C370.71757188 1068.08781017 367.51471826 1070.66119125 364.375 1073.625 C360.13135345 1077.59599051 355.59192746 1080.84666215 350.8125 1084.125 C345.53868515 1087.74823158 340.61988573 1091.44406665 336 1095.875 C331.35101237 1100.31353963 326.51980002 1103.98814938 321.25048828 1107.62597656 C317.71757188 1110.08781017 314.51471826 1112.66119125 311.375 1115.625 C306.41688357 1120.27014563 300.96780918 1124.04745881 295.33862305 1127.82568359 C291.81300668 1130.22964333 288.67865277 1132.64374373 285.71484375 1135.72265625 C281.99636338 1139.58450099 277.83727233 1142.5256879 273.4375 1145.5625 C267.17331467 1149.97689707 261.51045453 1154.52129195 255.94921875 1159.79296875 C252.13559363 1163.18585446 248.03313469 1166.09924266 243.88525391 1169.06591797 C238.96018628 1172.61351944 234.34769621 1176.4258223 229.76147461 1180.3972168 C225.8255142 1183.78005481 221.72351368 1186.74596832 217.43359375 1189.65625 C214.60718481 1191.66177147 212.08825793 1193.91405333 209.515625 1196.23046875 C202.99703699 1201.88501573 196.08514939 1207.1518014 189.125 1212.25 C185.62698923 1214.83451751 182.3549192 1217.66244491 179.0625 1220.5 C174.56106913 1224.37555645 169.943957 1227.92963021 165.0625 1231.3125 C159.635158 1235.07731922 154.85220628 1239.21281692 150.03515625 1243.74609375 C146.32573794 1247.00773592 142.35497264 1249.76768615 138.29980469 1252.5769043 C134.77911368 1255.04052273 131.57137183 1257.60662777 128.4375 1260.5625 C123.28652694 1265.38142686 117.60860859 1269.31627363 111.85913086 1273.37548828 C107.46170381 1276.51173014 103.41128202 1279.71358478 99.5 1283.4375 C68.10741516 1312.88288972 23.4192156 1323.30068151 -18.40527344 1322.38183594 C-56.65973385 1320.90165475 -93.95047559 1304.21118808 -121.69921875 1278.1875 C-123.83859511 1276.17837824 -123.83859511 1276.17837824 -126.375 1274.2265625 C-130.00022817 1271.28687428 -132.82951231 1267.82337067 -135.8125 1264.25 C-136.43125 1263.51910156 -137.05 1262.78820313 -137.6875 1262.03515625 C-161.999093 1232.57695586 -175.94089259 1195.74105842 -176.05273438 1157.50048828 C-176.06227655 1155.5457733 -176.09338046 1153.59120127 -176.125 1151.63671875 C-176.15072584 1145.1602393 -175.87128569 1139.06089293 -174.72958183 1132.69728661 C-172.42603057 1119.69274808 -172.44696187 1106.87960804 -172.5546875 1093.7109375 C-172.56288161 1091.22311853 -172.56952329 1088.73529404 -172.57473755 1086.24746704 C-172.59176346 1079.68666471 -172.62579158 1073.12607307 -172.66479492 1066.56536865 C-172.73113994 1055.05147528 -172.76995636 1043.53746316 -172.8046875 1032.0234375 C-172.80919265 1030.68912249 -172.8137055 1029.35480751 -172.81822586 1028.02049255 C-172.88886652 1006.02411077 -172.67309835 984.03752344 -172.36394501 962.04350996 C-171.72546384 916.56693249 -171.65810351 871.09552929 -171.68393171 825.61502278 C-171.68834495 816.90931426 -171.68511441 808.20361983 -171.6803025 799.49791217 C-171.6757731 790.95355897 -171.67511598 782.40921192 -171.67774117 773.86485791 C-171.67928792 768.82671853 -171.67953945 763.78858887 -171.67620468 758.75045013 C-171.67332409 754.08404489 -171.67530488 749.41766686 -171.68109894 744.75126457 C-171.68241971 743.04763013 -171.68204401 741.3439934 -171.67983627 739.64035988 C-171.67710141 737.31715475 -171.68053282 734.99403697 -171.68551636 732.6708374 C-171.68589338 731.3743716 -171.68627041 730.07790581 -171.68665886 728.74215317 C-171.80425084 725.47891813 -172.2199106 722.45555428 -172.8125 719.25 C-173.75043992 707.28456645 -171.84127232 697.46393388 -167.8125 686.25 C-167.41675781 685.12078125 -167.02101563 683.9915625 -166.61328125 682.828125 C-164.01490167 676.02572265 -160.66746304 670.66126089 -155.8125 665.25 C-155.19375 664.55003906 -154.575 663.85007812 -153.9375 663.12890625 C-145.57534223 654.21039524 -133.22915815 647.08739274 -120.80810547 646.08886719 C-98.53748233 645.64948348 -78.72508126 647.85735829 -60.8125 662.25 C-59.43771484 663.28640625 -59.43771484 663.28640625 -58.03515625 664.34375 C-50.86738659 669.89299103 -45.43521675 676.21197612 -39.8125 683.25 C-38.57205225 684.67503819 -37.32316243 686.09281321 -36.0625 687.5 C-26.8125 698.0023753 -26.8125 698.0023753 -26.8125 701.25 C-26.21566406 701.51683594 -25.61882812 701.78367187 -25.00390625 702.05859375 C-22.76675676 703.27486932 -21.46829933 704.45357259 -19.75 706.3125 C-16.85038295 709.30485534 -13.80906912 711.95042442 -10.5625 714.5625 C-5.65459859 718.51440415 -0.98437752 722.6646865 3.65234375 726.9296875 C5.72075758 728.82281203 7.81155876 730.67251704 9.9375 732.5 C13.23551273 735.35692049 16.41104993 738.33021134 19.58496094 741.32299805 C25.23851314 746.65339042 30.91397928 751.76426273 37.0625 756.52734375 C39.6969509 758.66299237 41.99376127 761.03008245 44.34375 763.46875 C47.29592482 766.3208511 50.56298987 768.7629195 53.796875 771.28515625 C55.87006984 772.98910561 57.63175622 774.71303774 59.4375 776.6875 C75.22977098 792.92462369 100.62044765 801.01186575 122.70239258 801.53564453 C149.43731668 801.79814936 173.20430675 793.19668948 193.1875 775.25 C193.89390625 774.62609375 194.6003125 774.0021875 195.328125 773.359375 C213.21092588 756.60304976 223.08198212 731.40595983 224.40625 707.26171875 C225.27441898 678.97906668 215.2537463 653.85254245 196.19140625 633.07421875 C191.95906477 628.68859328 187.36312144 624.9369934 182.56640625 621.1875 C179.80343198 618.93719584 177.35002828 616.49867231 174.87109375 613.9453125 C171.32801985 610.37757683 167.44710459 607.18024089 163.62646484 603.91650391 C161.85480026 602.40306994 160.08349917 600.88921257 158.3125 599.375 C157.70639893 598.85695801 157.10029785 598.33891602 156.47583008 597.80517578 C152.05440547 594.01673924 147.70548564 590.15617194 143.39453125 586.2421875 C141.45123999 584.48806619 139.48390552 582.77027306 137.5 581.0625 C133.52214156 577.60804399 129.70828371 573.98761849 125.875 570.375 C120.59493094 565.40321315 115.20867769 560.72320373 109.5390625 556.19921875 C106.80955813 553.9367226 104.38585332 551.47986923 101.9296875 548.9296875 C99.95835891 547.02907922 97.86981308 545.40326748 95.6875 543.75 C92.12739998 541.05131166 89.01067214 538.17651962 85.90234375 534.9765625 C82.82860115 531.88181482 79.49460531 529.09058575 76.1875 526.25 C73.7272827 524.12717565 71.26954544 522.00149438 68.8125 519.875 C68.15950928 519.31006836 67.50651855 518.74513672 66.83374023 518.16308594 C62.29490501 514.22908863 57.80882088 510.24206795 53.359375 506.20703125 C51.42702519 504.46583115 49.4709207 502.75968171 47.5 501.0625 C44.18226182 498.1821918 40.9838436 495.18825913 37.7878418 492.17480469 C32.13486861 486.84531767 26.46020277 481.73510363 20.3125 476.97265625 C17.6780491 474.83700763 15.38123873 472.46991755 13.03125 470.03125 C10.86400501 467.93747095 8.55973477 466.10777422 6.1875 464.25 C2.48369274 461.34625987 -0.85463088 458.31789175 -4.12890625 454.9453125 C-7.67198015 451.37757683 -11.55289541 448.18024089 -15.37353516 444.91650391 C-17.14519967 443.40307 -18.91643307 441.88913317 -20.6875 440.375 C-21.29070068 439.8598584 -21.89390137 439.3447168 -22.51538086 438.81396484 C-26.99098441 434.9815221 -31.38222101 431.07092119 -35.7265625 427.08984375 C-37.78407054 425.21130196 -37.78407054 425.21130196 -40.0859375 423.62890625 C-40.65570313 423.17386719 -41.22546875 422.71882813 -41.8125 422.25 C-41.8125 421.59 -41.8125 420.93 -41.8125 420.25 C-42.39588135 419.99259033 -42.9792627 419.73518066 -43.58032227 419.4699707 C-46.00522655 418.14466755 -47.59289329 416.69772789 -49.52734375 414.73046875 C-50.21376953 414.03759766 -50.90019531 413.34472656 -51.60742188 412.63085938 C-52.31447266 411.90705078 -53.02152344 411.18324219 -53.75 410.4375 C-54.45318359 409.72529297 -55.15636719 409.01308594 -55.88085938 408.27929688 C-57.24905422 406.89315008 -58.61533032 405.50510623 -59.97949219 404.11499023 C-62.24279158 401.81220067 -64.52738898 399.53112304 -66.8125 397.25 C-67.46992188 396.58097656 -68.12734375 395.91195313 -68.8046875 395.22265625 C-71.93434699 392.04754527 -75.06812189 388.97368313 -78.5 386.125 C-80.72925808 384.26226408 -82.36453256 382.58473 -84.25 380.3125 C-86.29349656 377.8702724 -88.16871325 375.98661923 -90.5625 373.9375 C-98.92314906 366.7510994 -105.87862162 358.92073844 -112.44726562 350.08154297 C-113.88609238 348.15127146 -115.34001849 346.23310068 -116.796875 344.31640625 C-122.27967969 337.08594122 -127.65359852 329.80580202 -132.734375 322.28515625 C-134.05044388 320.36300302 -135.41070776 318.46977942 -136.828125 316.62109375 C-152.12078634 295.93987654 -157.96077049 265.26923245 -163.6875 240.5 C-163.86635742 239.72962402 -164.04521484 238.95924805 -164.22949219 238.16552734 C-164.80652595 235.53480295 -165.31404908 232.89680639 -165.8125 230.25 C-165.93704559 229.63271027 -166.06159119 229.01542053 -166.18991089 228.37942505 C-168.85566065 214.96246035 -169.2479767 201.81492899 -169.14868164 188.16137695 C-169.12500838 184.68872884 -169.12815747 181.21684968 -169.13476562 177.74414062 C-169.11525921 161.57245842 -168.58191288 145.574802 -164.625 129.8125 C-164.40924316 128.94109375 -164.19348633 128.0696875 -163.97119141 127.171875 C-153.10496295 84.89987577 -126.3241602 47.63682453 -88.9375 24.84375 C-61.38169917 8.61163962 -31.96762012 0.02463834 0 0 Z " fill="#ffffff" transform="translate(265.8125,317.75)"/>
</svg>
