<svg width="375" height="50" viewBox="0 0 375 50" fill="none" xmlns="http://www.w3.org/2000/svg">
<path d="M6.336 48.4423C2.112 48.4423 0 46.2863 0 41.9743V8.44633C0 4.13432 2.112 1.97832 6.336 1.97832H28.116C30.14 1.97832 31.702 2.61632 32.802 3.89232C33.946 5.16832 34.518 6.68632 34.518 8.44633C34.518 10.2063 33.946 11.7243 32.802 13.0003C31.702 14.2763 30.14 14.9143 28.116 14.9143H12.738V19.3363H25.542C27.39 19.3363 28.82 19.9303 29.832 21.1183C30.888 22.2623 31.416 23.6263 31.416 25.2103C31.416 26.7943 30.888 28.1803 29.832 29.3683C28.82 30.5123 27.39 31.0843 25.542 31.0843H12.738V35.5723H28.116C30.14 35.5723 31.702 36.2103 32.802 37.4863C33.946 38.7183 34.518 40.2143 34.518 41.9743C34.518 43.7343 33.946 45.2523 32.802 46.5283C31.702 47.8043 30.14 48.4423 28.116 48.4423H6.336Z" fill="url(#paint0_linear_803_980)"/>
<path d="M61.8131 15.0463C60.0091 15.0463 58.4471 15.3323 57.1271 15.9043C55.8071 16.4763 54.6851 17.2463 53.7611 18.2143C52.8811 19.1383 52.2211 20.2163 51.7811 21.4483C51.3411 22.6803 51.1211 23.9343 51.1211 25.2103C51.1211 26.5303 51.3411 27.8283 51.7811 29.1043C52.2211 30.3363 52.8811 31.4363 53.7611 32.4043C54.6851 33.3283 55.8071 34.0983 57.1271 34.7143C58.4471 35.2863 59.9871 35.5723 61.7471 35.5723H66.4991C67.5991 35.5723 68.5451 35.7703 69.3371 36.1663C70.1291 36.5183 70.7891 37.0023 71.3171 37.6183C71.8451 38.1903 72.2411 38.8723 72.5051 39.6643C72.7691 40.4123 72.9011 41.1823 72.9011 41.9743C72.9011 43.6903 72.3731 45.2083 71.3171 46.5283C70.2611 47.8043 68.6551 48.4423 66.4991 48.4423H61.8131C57.9851 48.4423 54.6191 47.8043 51.7151 46.5283C48.8111 45.2083 46.3911 43.4703 44.4551 41.3143C42.5631 39.1583 41.1331 36.7163 40.1651 33.9883C39.1971 31.2603 38.7131 28.4443 38.7131 25.5403C38.7131 22.6363 39.1971 19.7763 40.1651 16.9603C41.1771 14.1003 42.6951 11.5703 44.7191 9.37033C46.7431 7.17032 49.2511 5.38832 52.2431 4.02432C55.2351 2.66032 58.7551 1.97832 62.8031 1.97832H66.4991C67.5551 1.97832 68.4791 2.17632 69.2711 2.57232C70.1071 2.92432 70.7891 3.40832 71.3171 4.02432C71.8891 4.64032 72.3071 5.34432 72.5711 6.13632C72.8791 6.88432 73.0331 7.67632 73.0331 8.51232C73.0331 9.34832 72.8791 10.1623 72.5711 10.9543C72.3071 11.7463 71.8891 12.4503 71.3171 13.0663C70.7891 13.6383 70.1071 14.1223 69.2711 14.5183C68.4791 14.8703 67.5551 15.0463 66.4991 15.0463H61.8131Z" fill="url(#paint1_linear_803_980)"/>
<path d="M90.1462 42.3043C90.1462 44.4163 89.5082 46.0223 88.2322 47.1223C86.9562 48.1783 85.4602 48.7063 83.7442 48.7063C81.9842 48.7063 80.4662 48.1783 79.1902 47.1223C77.9582 46.0223 77.3422 44.4163 77.3422 42.3043V8.11633C77.3422 6.09233 77.9582 4.53032 79.1902 3.43032C80.4662 2.33032 81.9842 1.78032 83.7442 1.78032C85.4602 1.78032 86.9562 2.33032 88.2322 3.43032C89.5082 4.53032 90.1462 6.09233 90.1462 8.11633V42.3043Z" fill="url(#paint2_linear_803_980)"/>
<path d="M101.856 48.4423C97.6315 48.4423 95.5195 46.2863 95.5195 41.9743V8.44633C95.5195 4.13432 97.6315 1.97832 101.856 1.97832H123.636C125.66 1.97832 127.222 2.61632 128.322 3.89232C129.466 5.16832 130.038 6.68632 130.038 8.44633C130.038 10.2063 129.466 11.7243 128.322 13.0003C127.222 14.2763 125.66 14.9143 123.636 14.9143H108.258V19.3363H121.062C122.91 19.3363 124.34 19.9303 125.352 21.1183C126.408 22.2623 126.936 23.6263 126.936 25.2103C126.936 26.7943 126.408 28.1803 125.352 29.3683C124.34 30.5123 122.91 31.0843 121.062 31.0843H108.258V35.5723H123.636C125.66 35.5723 127.222 36.2103 128.322 37.4863C129.466 38.7183 130.038 40.2143 130.038 41.9743C130.038 43.7343 129.466 45.2523 128.322 46.5283C127.222 47.8043 125.66 48.4423 123.636 48.4423H101.856Z" fill="url(#paint3_linear_803_980)"/>
<path d="M157.069 5.08032C158.345 2.88032 160.127 1.78032 162.415 1.78032C163.251 1.78032 164.087 1.95632 164.923 2.30832C165.759 2.66032 166.485 3.14432 167.101 3.76032C167.717 4.33232 168.223 5.01432 168.619 5.80632C169.015 6.55432 169.213 7.34632 169.213 8.18232C169.213 9.41432 168.861 10.5363 168.157 11.5483L158.851 25.2763L168.157 39.0043C168.465 39.5323 168.707 40.0603 168.883 40.5883C169.103 41.1163 169.213 41.6883 169.213 42.3043C169.213 43.1843 168.993 44.0203 168.553 44.8123C168.157 45.5603 167.607 46.2423 166.903 46.8583C166.243 47.4303 165.495 47.8923 164.659 48.2443C163.823 48.5523 162.987 48.7063 162.151 48.7063C160.039 48.7063 158.345 47.6063 157.069 45.4063L152.053 36.5623L147.103 45.4063C146.443 46.5503 145.673 47.3863 144.793 47.9143C143.913 48.4423 142.989 48.7063 142.021 48.7063C141.229 48.7063 140.415 48.5523 139.579 48.2443C138.743 47.8923 137.973 47.4303 137.269 46.8583C136.609 46.2423 136.059 45.5603 135.619 44.8123C135.179 44.0203 134.959 43.1843 134.959 42.3043C134.959 41.9083 135.047 41.4023 135.223 40.7863C135.443 40.1703 135.729 39.5763 136.081 39.0043L145.321 25.2763L136.081 11.5483C135.773 11.1083 135.509 10.6683 135.289 10.2283C135.069 9.78832 134.959 9.32632 134.959 8.84232C134.959 7.96232 135.135 7.10432 135.487 6.26832C135.839 5.38832 136.301 4.61832 136.873 3.95832C137.489 3.29832 138.215 2.77032 139.051 2.37432C139.887 1.97832 140.811 1.78032 141.823 1.78032C142.835 1.78032 143.803 2.06632 144.727 2.63832C145.651 3.16632 146.443 3.98032 147.103 5.08032L152.053 13.9903L157.069 5.08032Z" fill="url(#paint4_linear_803_980)"/>
<path d="M187.217 42.1063C187.217 46.5063 185.083 48.7063 180.815 48.7063C176.503 48.7063 174.347 46.5503 174.347 42.2383V8.44633C174.347 4.13432 176.415 1.97832 180.551 1.97832H193.619C196.391 1.97832 198.789 2.33032 200.813 3.03432C202.881 3.73832 204.575 4.75032 205.895 6.07032C207.215 7.34632 208.183 8.90832 208.799 10.7563C209.459 12.6043 209.789 14.6723 209.789 16.9603C209.789 19.0723 209.481 21.0523 208.865 22.9003C208.293 24.7043 207.457 26.2663 206.357 27.5863C205.257 28.9063 203.915 29.9623 202.331 30.7543C200.747 31.5023 198.943 31.8763 196.919 31.8763H194.675C192.563 31.8763 191.089 31.3923 190.253 30.4243C189.417 29.4123 188.999 28.0703 188.999 26.3983C188.999 24.7263 189.461 23.4943 190.385 22.7023C191.309 21.9103 192.475 21.5143 193.883 21.5143H194.939C196.039 21.5143 196.897 21.2283 197.513 20.6563C198.129 20.0843 198.437 19.2043 198.437 18.0163C198.437 16.6963 198.063 15.7503 197.315 15.1783C196.567 14.5623 195.511 14.2543 194.147 14.2543H187.217V42.1063Z" fill="url(#paint5_linear_803_980)"/>
<path d="M228.523 30.8863C228.303 30.5343 228.083 30.0503 227.863 29.4343C227.687 28.8183 227.599 28.1363 227.599 27.3883C227.599 25.4523 227.973 23.9563 228.721 22.9003C229.513 21.8443 230.789 21.3163 232.549 21.3163H233.473C234.573 21.3163 235.453 21.0083 236.113 20.3923C236.773 19.7763 237.103 18.8083 237.103 17.4883C237.103 16.3003 236.773 15.4643 236.113 14.9803C235.453 14.4963 234.441 14.2543 233.077 14.2543H226.147V41.8423C226.147 46.2423 224.013 48.4423 219.745 48.4423C215.433 48.4423 213.277 46.2863 213.277 41.9743V8.44633C213.277 4.13432 215.345 1.97832 219.481 1.97832H233.341C236.069 1.97832 238.423 2.39632 240.403 3.23232C242.383 4.02432 244.011 5.08032 245.287 6.40032C246.563 7.72032 247.509 9.23832 248.125 10.9543C248.741 12.6263 249.049 14.3423 249.049 16.1023C249.049 19.2703 248.279 21.9543 246.739 24.1543C245.243 26.3543 243.417 27.8943 241.261 28.7743L247.399 38.4103C248.235 39.9063 248.653 41.2263 248.653 42.3703C248.653 43.2943 248.455 44.1523 248.059 44.9443C247.663 45.7363 247.135 46.4183 246.475 46.9903C245.815 47.5183 245.067 47.9363 244.231 48.2443C243.395 48.5523 242.559 48.7063 241.723 48.7063C240.711 48.7063 239.699 48.4423 238.687 47.9143C237.719 47.3863 236.927 46.5503 236.311 45.4063L228.523 30.8863Z" fill="url(#paint6_linear_803_980)"/>
<path d="M259.83 48.4423C255.606 48.4423 253.494 46.2863 253.494 41.9743V8.44633C253.494 4.13432 255.606 1.97832 259.83 1.97832H281.61C283.634 1.97832 285.196 2.61632 286.296 3.89232C287.44 5.16832 288.012 6.68632 288.012 8.44633C288.012 10.2063 287.44 11.7243 286.296 13.0003C285.196 14.2763 283.634 14.9143 281.61 14.9143H266.232V19.3363H279.036C280.884 19.3363 282.314 19.9303 283.326 21.1183C284.382 22.2623 284.91 23.6263 284.91 25.2103C284.91 26.7943 284.382 28.1803 283.326 29.3683C282.314 30.5123 280.884 31.0843 279.036 31.0843H266.232V35.5723H281.61C283.634 35.5723 285.196 36.2103 286.296 37.4863C287.44 38.7183 288.012 40.2143 288.012 41.9743C288.012 43.7343 287.44 45.2523 286.296 46.5283C285.196 47.8043 283.634 48.4423 281.61 48.4423H259.83Z" fill="url(#paint7_linear_803_980)"/>
<path d="M341.291 0.333076C341.325 0.333051 341.359 0.333026 341.394 0.333C341.91 0.3336 342.405 0.35073 342.909 0.453326C342.94 0.459479 342.972 0.465631 343.005 0.47197C344.274 0.724042 345.42 1.27154 346.36 2.03361C346.508 2.15211 346.659 2.2573 346.824 2.35883C347.044 2.49483 347.239 2.6436 347.436 2.80231C347.617 2.94697 347.808 3.07535 348.007 3.20172C348.172 3.30807 348.326 3.42177 348.477 3.54283C348.65 3.6821 348.829 3.80964 349.02 3.93133C349.236 4.06825 349.433 4.21479 349.629 4.37142C349.781 4.49255 349.941 4.60192 350.108 4.70833C350.323 4.84525 350.521 4.99179 350.716 5.14842C350.869 5.26955 351.028 5.37891 351.195 5.48533C351.409 5.6215 351.606 5.76697 351.8 5.92266C351.987 6.07096 352.186 6.20399 352.388 6.33673C352.58 6.46298 352.76 6.59708 352.939 6.73653C353.163 6.90835 353.4 7.06845 353.637 7.22664C353.811 7.34272 353.976 7.45844 354.129 7.59433C354.292 7.73721 354.471 7.8472 354.662 7.96158C354.86 8.08629 355.038 8.22917 355.219 8.37133C355.379 8.49407 355.545 8.60767 355.718 8.71801C355.976 8.88346 356.214 9.0585 356.449 9.2475C356.589 9.3597 356.732 9.4591 356.891 9.55301C357.118 9.68783 357.313 9.84287 357.513 10.0049C357.709 10.162 357.916 10.2977 358.134 10.4321C358.305 10.544 358.459 10.6683 358.615 10.7944C358.796 10.9382 358.985 11.0656 359.183 11.191C359.36 11.3047 359.522 11.4281 359.683 11.558C359.848 11.6903 360.011 11.8108 360.197 11.921C360.426 12.0565 360.621 12.2127 360.822 12.3756C360.971 12.4945 361.12 12.6012 361.287 12.7003C361.514 12.8341 361.707 12.9885 361.907 13.1498C362.103 13.3077 362.311 13.4445 362.53 13.5795C362.69 13.6834 362.835 13.7985 362.981 13.9156C363.134 14.0374 363.294 14.1474 363.462 14.2543C363.676 14.3905 363.873 14.536 364.067 14.6917C364.254 14.84 364.453 14.973 364.655 15.1057C364.847 15.232 365.027 15.3661 365.206 15.5055C365.431 15.6778 365.668 15.838 365.906 15.9969C366.07 16.1065 366.228 16.214 366.371 16.3425C366.496 16.4528 366.631 16.5413 366.777 16.6316C366.965 16.7493 367.139 16.8719 367.309 17.0085C367.484 17.1486 367.664 17.277 367.856 17.3993C368.071 17.5362 368.269 17.6828 368.464 17.8394C368.617 17.9605 368.776 18.0699 368.943 18.1763C369.157 18.3125 369.354 18.458 369.548 18.6137C369.735 18.7619 369.934 18.8948 370.136 19.0275C370.365 19.1785 370.579 19.3415 370.792 19.5083C370.928 19.6123 371.066 19.7111 371.214 19.8027C372.7 20.7302 373.856 22.2536 374.159 23.8139C374.195 24.043 374.192 24.2726 374.185 24.5033C374.184 24.5334 374.184 24.5634 374.183 24.5943C374.18 24.6951 374.176 24.7957 374.172 24.8965C374.171 24.9294 374.17 24.9623 374.169 24.9962C374.167 25.0271 374.165 25.058 374.164 25.0898C374.163 25.1176 374.162 25.1454 374.16 25.174C374.142 25.2433 374.142 25.2433 374.011 25.3173C373.959 25.4095 373.912 25.5002 373.867 25.5948C373.433 26.4683 372.686 27.1171 371.658 27.4969C370.601 27.836 369.456 27.8247 368.422 27.435C368.326 27.3949 368.234 27.3524 368.141 27.3061C368.019 27.2367 368.019 27.2367 367.908 27.2318C367.739 27.1923 367.638 27.098 367.516 26.9962C367.466 26.9554 367.415 26.9146 367.365 26.8738C367.341 26.8541 367.317 26.8344 367.292 26.8141C367.211 26.7487 367.128 26.6859 367.043 26.6239C366.916 26.5307 366.792 26.4355 366.668 26.3395C366.52 26.2258 366.369 26.1171 366.214 26.0111C365.963 25.8388 365.73 25.653 365.495 25.4656C365.363 25.3602 365.228 25.2579 365.09 25.1572C364.989 25.0821 364.889 25.0055 364.789 24.9288C364.556 24.7498 364.321 24.5728 364.08 24.4003C363.813 24.208 363.555 24.0143 363.31 23.8008C363.226 23.7291 363.14 23.6627 363.049 23.5968C362.888 23.4792 362.739 23.3531 362.591 23.2234C362.503 23.1503 362.413 23.082 362.32 23.0138C362.128 22.8722 361.952 22.7198 361.774 22.5655C361.501 22.3306 361.225 22.116 360.918 21.9133C360.866 21.8755 360.866 21.8755 360.813 21.8369C360.306 21.4692 359.657 21.2112 358.977 21.2369C358.322 21.3024 357.697 21.4971 357.257 21.932C356.796 22.4466 356.63 22.9752 356.698 23.6153C356.827 24.2324 357.229 24.6977 357.815 25.0666C357.967 25.1651 358.105 25.2746 358.246 25.384C358.342 25.4582 358.44 25.5302 358.539 25.6018C358.681 25.707 358.796 25.823 358.917 25.9463C359 26.0107 359.085 26.0725 359.17 26.1344C359.271 26.2103 359.366 26.2901 359.46 26.3718C359.608 26.4995 359.762 26.6185 359.922 26.7352C360.003 26.7967 360.08 26.8606 360.156 26.9268C360.286 27.039 360.422 27.1428 360.562 27.2457C360.667 27.3233 360.771 27.4024 360.874 27.4818C361.004 27.5814 361.134 27.6803 361.266 27.7778C361.397 27.8754 361.527 27.9743 361.657 28.0738C361.889 28.2518 362.123 28.4275 362.361 28.5998C362.659 28.8153 362.951 29.0343 363.238 29.2599C363.435 29.4138 363.636 29.5622 363.84 29.7095C364.116 29.9098 364.39 30.1117 364.656 30.3223C364.769 30.4121 364.885 30.4967 365.007 30.5783C365.135 30.6708 365.196 30.7649 365.264 30.8948C365.32 30.9943 365.389 31.0828 365.461 31.1749C365.958 31.8331 366.094 32.5747 365.92 33.344C365.782 33.7619 365.524 34.1726 365.181 34.4933C365.152 34.5209 365.123 34.5485 365.093 34.5769C364.88 34.7692 364.651 34.9085 364.39 35.0504C364.28 35.1145 364.197 35.1766 364.107 35.2588C363.938 35.4122 363.747 35.5334 363.549 35.6588C363.324 35.8026 363.115 35.9452 362.922 36.1205C362.729 36.2805 362.509 36.4151 362.296 36.5546C362.05 36.7154 361.811 36.8787 361.584 37.0579C361.381 37.2159 361.164 37.351 360.941 37.487C360.778 37.587 360.627 37.6905 360.48 37.8071C360.292 37.9563 360.091 38.0791 359.881 38.2035C359.726 38.296 359.585 38.3925 359.447 38.5032C359.262 38.6501 359.065 38.7704 358.857 38.8917C358.627 39.0258 358.413 39.1625 358.212 39.3265C358.01 39.4907 357.8 39.6266 357.571 39.7612C357.417 39.8523 357.278 39.9475 357.141 40.0572C356.957 40.2041 356.759 40.3244 356.551 40.4457C356.322 40.5798 356.108 40.7165 355.907 40.8805C355.705 41.0447 355.495 41.1806 355.265 41.3152C355.112 41.4063 354.972 41.5015 354.836 41.6112C354.62 41.7831 354.383 41.9228 354.138 42.0626C353.985 42.1516 353.849 42.2409 353.72 42.3548C353.558 42.4977 353.377 42.6065 353.186 42.7189C352.913 42.8822 352.667 43.0504 352.425 43.2454C352.259 43.371 352.08 43.4787 351.9 43.5885C351.686 43.7198 351.485 43.8608 351.286 44.0078C351.114 44.1329 350.936 44.2427 350.749 44.3504C350.626 44.4246 350.517 44.5079 350.405 44.5936C350.121 44.8028 349.821 44.9977 349.518 45.1863C349.366 45.282 349.223 45.3866 349.08 45.4916C348.884 45.635 348.684 45.7665 348.471 45.8916C348.235 46.0309 348.027 46.184 347.818 46.3517C347.656 46.4724 347.483 46.5745 347.307 46.6784C347.154 46.7696 347.014 46.8645 346.878 46.9739C346.654 47.1522 346.407 47.2978 346.157 47.448C345.966 47.564 345.789 47.6825 345.619 47.8203C344.254 48.9097 342.31 49.2952 340.49 49.2612C338.826 49.2064 337.204 48.5889 335.997 47.626C335.904 47.5517 335.904 47.5517 335.794 47.4795C335.636 47.3707 335.513 47.2425 335.383 47.1103C335.356 47.0833 335.329 47.0562 335.302 47.0284C334.244 45.9384 333.638 44.5755 333.633 43.1606C333.632 43.0883 333.631 43.016 333.63 42.9436C333.628 42.704 333.641 42.4783 333.69 42.2429C333.79 41.7617 333.79 41.2876 333.785 40.8004C333.784 40.7083 333.784 40.6163 333.784 40.5242C333.783 40.2815 333.782 40.0387 333.78 39.796C333.777 39.37 333.776 38.944 333.774 38.5179C333.774 38.4686 333.774 38.4192 333.773 38.3698C333.77 37.556 333.78 36.7425 333.793 35.9287C333.821 34.2461 333.824 32.5636 333.823 30.8808C333.823 30.5587 333.823 30.2366 333.823 29.9145C333.823 29.5984 333.823 29.2822 333.823 28.9661C333.823 28.7797 333.823 28.5933 333.823 28.4068C333.823 28.2342 333.823 28.0615 333.823 27.8889C333.823 27.8258 333.823 27.7628 333.823 27.6998C333.823 27.6138 333.823 27.5279 333.823 27.4419C333.823 27.3939 333.823 27.346 333.823 27.2965C333.818 27.1758 333.799 27.0639 333.774 26.9453C333.733 26.5026 333.816 26.1392 333.991 25.7243C334.008 25.6825 334.026 25.6408 334.043 25.5977C334.156 25.346 334.302 25.1475 334.513 24.9473C334.54 24.9214 334.567 24.8955 334.595 24.8688C334.958 24.5389 335.496 24.2753 336.036 24.2384C337.005 24.2221 337.866 24.3038 338.646 24.8363C338.705 24.8747 338.705 24.8747 338.766 24.9138C339.078 25.1191 339.315 25.3529 339.559 25.6133C339.613 25.6661 339.667 25.7185 339.722 25.7706C340.125 26.1592 340.125 26.1592 340.125 26.2793C340.151 26.2892 340.177 26.2991 340.203 26.3092C340.301 26.3542 340.357 26.3979 340.432 26.4666C340.558 26.5774 340.69 26.6752 340.832 26.7719C341.045 26.9181 341.248 27.0717 341.45 27.2295C341.54 27.2995 341.631 27.368 341.723 27.4356C341.867 27.5413 342.005 27.6513 342.143 27.762C342.389 27.9593 342.636 28.1484 342.903 28.3246C343.018 28.4036 343.118 28.4912 343.22 28.5814C343.348 28.6869 343.49 28.7773 343.631 28.8706C343.721 28.9337 343.798 28.9975 343.877 29.0705C344.563 29.6713 345.668 29.9705 346.629 29.9899C347.792 29.9996 348.825 29.6814 349.695 29.0173C349.725 28.9942 349.756 28.9712 349.788 28.9474C350.566 28.3274 350.995 27.3951 351.053 26.5018C351.09 25.4553 350.655 24.5256 349.825 23.7568C349.641 23.5946 349.441 23.4557 349.233 23.317C349.112 23.2338 349.006 23.1435 348.898 23.0491C348.744 22.917 348.575 22.7987 348.409 22.678C348.332 22.622 348.255 22.566 348.178 22.51C348.151 22.4908 348.125 22.4716 348.098 22.4519C347.905 22.3117 347.716 22.1689 347.529 22.024C347.444 21.9591 347.359 21.8956 347.272 21.8324C347.099 21.7046 346.933 21.5706 346.767 21.437C346.537 21.253 346.303 21.0798 346.056 20.9124C345.937 20.8287 345.832 20.7378 345.725 20.6435C345.639 20.5732 345.548 20.513 345.453 20.4518C345.299 20.352 345.163 20.2456 345.028 20.1272C344.894 20.0127 344.749 19.9094 344.605 19.8043C344.498 19.7258 344.391 19.6471 344.284 19.5685C344.256 19.5476 344.228 19.5266 344.198 19.5051C344.001 19.3596 343.806 19.212 343.612 19.0627C343.528 18.9983 343.443 18.9352 343.357 18.8724C343.213 18.7658 343.074 18.655 342.935 18.5435C342.689 18.3464 342.442 18.1573 342.175 17.9811C342.06 17.902 341.96 17.8145 341.858 17.7242C341.764 17.6468 341.663 17.5791 341.56 17.5103C341.399 17.4029 341.254 17.2908 341.111 17.1661C340.957 17.034 340.788 16.9157 340.622 16.795C340.545 16.739 340.468 16.683 340.391 16.627C340.365 16.6079 340.339 16.5888 340.312 16.5692C340.117 16.4274 339.926 16.2827 339.737 16.1354C339.647 16.0659 339.647 16.0659 339.547 16.0073C339.522 15.9905 339.498 15.9737 339.472 15.9563C339.472 15.9319 339.472 15.9075 339.472 15.8823C339.447 15.8728 339.421 15.8633 339.395 15.8535C339.29 15.8044 339.221 15.7509 339.137 15.6781C339.107 15.6525 339.077 15.6268 339.046 15.6004C339.015 15.5736 338.985 15.5469 338.953 15.5193C338.922 15.4929 338.892 15.4666 338.86 15.4394C338.801 15.3881 338.741 15.3368 338.682 15.2853C338.583 15.2001 338.484 15.1157 338.385 15.0313C338.356 15.0066 338.327 14.9818 338.298 14.9563C338.162 14.8388 338.026 14.7251 337.876 14.6197C337.779 14.5508 337.708 14.4887 337.626 14.4046C337.537 14.3143 337.456 14.2446 337.352 14.1688C336.988 13.9029 336.685 13.6131 336.4 13.2861C336.337 13.2147 336.274 13.1437 336.21 13.0728C335.972 12.8053 335.738 12.5359 335.517 12.2576C335.46 12.1865 335.401 12.1165 335.339 12.0481C334.674 11.2829 334.42 10.148 334.171 9.23158C334.163 9.20307 334.155 9.17457 334.147 9.1452C334.122 9.04786 334.1 8.95026 334.078 8.85233C334.073 8.82949 334.067 8.80665 334.062 8.78311C333.946 8.28669 333.929 7.80023 333.933 7.29505C333.934 7.16656 333.934 7.0381 333.934 6.90961C333.934 6.31126 333.958 5.71934 334.13 5.13614C334.139 5.1039 334.149 5.07165 334.158 5.03844C334.631 3.47437 335.796 2.09564 337.422 1.25229C338.621 0.651706 339.9 0.333987 341.291 0.333076Z" fill="url(#paint8_linear_803_980)"/>
<path d="M300.575 7.56532e-05C300.609 5.06878e-05 300.643 2.5722e-05 300.678 0C301.194 0.000599612 301.689 0.0177294 302.193 0.120326C302.224 0.126478 302.256 0.132631 302.289 0.13897C303.558 0.391042 304.704 0.93854 305.644 1.70061C305.792 1.81911 305.943 1.9243 306.108 2.02583C306.328 2.16183 306.523 2.3106 306.72 2.46931C306.901 2.61397 307.092 2.74235 307.291 2.86872C307.456 2.97507 307.61 3.08877 307.761 3.20983C307.934 3.3491 308.113 3.47663 308.304 3.59833C308.52 3.73525 308.717 3.88179 308.913 4.03842C309.065 4.15955 309.225 4.26892 309.392 4.37533C309.607 4.51225 309.805 4.65879 310 4.81542C310.153 4.93655 310.312 5.04591 310.479 5.15233C310.693 5.2885 310.89 5.43397 311.084 5.58966C311.271 5.73796 311.47 5.87099 311.672 6.00373C311.864 6.12998 312.044 6.26408 312.223 6.40353C312.447 6.57535 312.684 6.73545 312.921 6.89364C313.095 7.00972 313.26 7.12544 313.413 7.26133C313.576 7.40421 313.755 7.5142 313.946 7.62858C314.144 7.75329 314.322 7.89617 314.503 8.03833C314.663 8.16107 314.829 8.27467 315.002 8.38501C315.26 8.55046 315.498 8.7255 315.733 8.9145C315.873 9.0267 316.016 9.1261 316.175 9.22001C316.402 9.35483 316.597 9.50987 316.797 9.67187C316.993 9.82899 317.2 9.96469 317.418 10.0991C317.589 10.211 317.743 10.3353 317.899 10.4614C318.08 10.6052 318.269 10.7326 318.467 10.858C318.644 10.9717 318.806 11.0951 318.967 11.225C319.132 11.3573 319.295 11.4778 319.481 11.588C319.71 11.7235 319.905 11.8797 320.106 12.0426C320.255 12.1615 320.404 12.2682 320.571 12.3673C320.798 12.5011 320.991 12.6555 321.191 12.8168C321.387 12.9747 321.595 13.1115 321.814 13.2465C321.974 13.3504 322.119 13.4655 322.265 13.5826C322.418 13.7044 322.578 13.8144 322.746 13.9213C322.96 14.0575 323.157 14.203 323.351 14.3587C323.538 14.507 323.737 14.64 323.939 14.7727C324.131 14.899 324.311 15.0331 324.49 15.1725C324.715 15.3448 324.952 15.505 325.19 15.6639C325.354 15.7735 325.512 15.881 325.655 16.0095C325.78 16.1198 325.915 16.2083 326.061 16.2986C326.249 16.4163 326.423 16.5389 326.593 16.6755C326.768 16.8156 326.948 16.944 327.14 17.0663C327.355 17.2032 327.553 17.3498 327.748 17.5064C327.901 17.6275 328.06 17.7369 328.227 17.8433C328.441 17.9795 328.638 18.125 328.832 18.2807C329.019 18.4289 329.218 18.5618 329.42 18.6945C329.649 18.8455 329.863 19.0085 330.076 19.1753C330.212 19.2793 330.35 19.3781 330.498 19.4697C331.984 20.3972 333.14 21.9206 333.443 23.4809C333.479 23.71 333.476 23.9396 333.469 24.1703C333.468 24.2004 333.468 24.2304 333.467 24.2613C333.464 24.3621 333.46 24.4627 333.456 24.5635C333.455 24.5964 333.454 24.6293 333.453 24.6632C333.451 24.6941 333.449 24.725 333.448 24.7568C333.447 24.7846 333.446 24.8124 333.444 24.841C333.426 24.9103 333.426 24.9103 333.295 24.9843C333.243 25.0765 333.196 25.1672 333.151 25.2618C332.717 26.1353 331.97 26.7841 330.942 27.1639C329.885 27.503 328.74 27.4917 327.706 27.102C327.61 27.0619 327.518 27.0194 327.425 26.9731C327.303 26.9037 327.303 26.9037 327.192 26.8988C327.023 26.8593 326.922 26.765 326.8 26.6632C326.75 26.6224 326.699 26.5816 326.649 26.5408C326.625 26.5211 326.601 26.5014 326.576 26.4811C326.495 26.4157 326.411 26.3529 326.327 26.2909C326.2 26.1977 326.076 26.1025 325.952 26.0065C325.804 25.8928 325.653 25.7841 325.498 25.6781C325.247 25.5058 325.014 25.32 324.779 25.1326C324.647 25.0272 324.511 24.9249 324.374 24.8242C324.273 24.7491 324.173 24.6725 324.073 24.5958C323.84 24.4168 323.605 24.2398 323.364 24.0673C323.097 23.875 322.839 23.6813 322.594 23.4678C322.51 23.3961 322.424 23.3297 322.333 23.2638C322.172 23.1462 322.023 23.0201 321.875 22.8904C321.787 22.8173 321.697 22.749 321.604 22.6808C321.412 22.5392 321.236 22.3868 321.058 22.2325C320.785 21.9976 320.509 21.783 320.202 21.5803C320.15 21.5425 320.15 21.5425 320.097 21.5039C319.59 21.1362 318.941 20.8782 318.261 20.9039C317.606 20.9694 316.981 21.1641 316.541 21.599C316.08 22.1136 315.914 22.6422 315.982 23.2823C316.111 23.8994 316.513 24.3647 317.099 24.7336C317.251 24.8321 317.389 24.9416 317.53 25.051C317.626 25.1252 317.724 25.1972 317.823 25.2688C317.965 25.374 318.08 25.49 318.201 25.6133C318.284 25.6777 318.369 25.7395 318.454 25.8014C318.555 25.8773 318.65 25.9571 318.744 26.0388C318.892 26.1665 319.046 26.2855 319.206 26.4022C319.287 26.4637 319.364 26.5276 319.44 26.5938C319.57 26.706 319.706 26.8098 319.846 26.9127C319.951 26.9903 320.055 27.0694 320.158 27.1488C320.288 27.2484 320.418 27.3473 320.55 27.4448C320.681 27.5424 320.811 27.6413 320.941 27.7408C321.173 27.9188 321.407 28.0945 321.645 28.2668C321.943 28.4823 322.235 28.7013 322.522 28.9269C322.719 29.0808 322.92 29.2292 323.124 29.3765C323.4 29.5768 323.674 29.7787 323.94 29.9893C324.053 30.0791 324.169 30.1637 324.291 30.2453C324.419 30.3378 324.48 30.4319 324.548 30.5618C324.604 30.6613 324.673 30.7498 324.745 30.8419C325.242 31.5001 325.378 32.2417 325.204 33.011C325.066 33.4289 324.808 33.8396 324.465 34.1603C324.436 34.1879 324.407 34.2155 324.377 34.2439C324.164 34.4362 323.935 34.5755 323.674 34.7174C323.564 34.7815 323.481 34.8436 323.391 34.9258C323.222 35.0792 323.031 35.2004 322.833 35.3258C322.608 35.4696 322.399 35.6122 322.206 35.7875C322.013 35.9475 321.793 36.0821 321.579 36.2216C321.334 36.3824 321.095 36.5457 320.868 36.7249C320.665 36.8829 320.448 37.018 320.225 37.154C320.062 37.254 319.911 37.3575 319.764 37.4741C319.576 37.6233 319.375 37.7461 319.165 37.8705C319.01 37.963 318.869 38.0595 318.731 38.1702C318.546 38.3171 318.349 38.4374 318.141 38.5587C317.911 38.6928 317.697 38.8295 317.496 38.9935C317.294 39.1577 317.084 39.2936 316.855 39.4282C316.701 39.5193 316.562 39.6145 316.425 39.7242C316.241 39.8711 316.043 39.9914 315.835 40.1127C315.606 40.2468 315.392 40.3835 315.191 40.5475C314.989 40.7117 314.779 40.8476 314.549 40.9822C314.396 41.0733 314.256 41.1685 314.12 41.2782C313.904 41.4501 313.667 41.5898 313.422 41.7296C313.269 41.8186 313.133 41.9079 313.004 42.0218C312.842 42.1647 312.661 42.2735 312.47 42.3859C312.197 42.5492 311.951 42.7174 311.709 42.9124C311.543 43.038 311.364 43.1457 311.184 43.2555C310.97 43.3868 310.769 43.5278 310.57 43.6748C310.398 43.7999 310.22 43.9097 310.033 44.0174C309.91 44.0916 309.801 44.1749 309.689 44.2606C309.405 44.4698 309.105 44.6647 308.802 44.8533C308.65 44.949 308.507 45.0536 308.364 45.1586C308.168 45.302 307.968 45.4335 307.755 45.5586C307.519 45.6979 307.311 45.851 307.102 46.0187C306.94 46.1394 306.767 46.2415 306.591 46.3454C306.438 46.4366 306.298 46.5315 306.162 46.6409C305.938 46.8192 305.691 46.9648 305.441 47.115C305.25 47.231 305.073 47.3495 304.903 47.4873C303.538 48.5767 301.594 48.9622 299.774 48.9282C298.11 48.8734 296.488 48.2559 295.281 47.293C295.188 47.2187 295.188 47.2187 295.078 47.1465C294.92 47.0377 294.797 46.9095 294.667 46.7773C294.64 46.7503 294.613 46.7232 294.586 46.6954C293.528 45.6054 292.922 44.2425 292.917 42.8276C292.916 42.7553 292.915 42.683 292.914 42.6106C292.912 42.371 292.925 42.1453 292.974 41.9099C293.074 41.4287 293.074 40.9546 293.069 40.4674C293.068 40.3753 293.068 40.2833 293.068 40.1912C293.067 39.9485 293.066 39.7057 293.064 39.463C293.061 39.037 293.06 38.611 293.058 38.1849C293.058 38.1356 293.058 38.0862 293.057 38.0368C293.054 37.223 293.064 36.4095 293.077 35.5957C293.105 33.9131 293.108 32.2306 293.107 30.5478C293.107 30.2257 293.107 29.9036 293.107 29.5815C293.107 29.2654 293.107 28.9492 293.107 28.6331C293.107 28.4467 293.107 28.2603 293.107 28.0738C293.107 27.9012 293.107 27.7285 293.107 27.5559C293.107 27.4928 293.107 27.4298 293.107 27.3668C293.107 27.2808 293.107 27.1949 293.107 27.1089C293.107 27.0609 293.107 27.013 293.107 26.9635C293.102 26.8428 293.083 26.7309 293.058 26.6123C293.017 26.1696 293.1 25.8062 293.275 25.3913C293.292 25.3495 293.31 25.3078 293.327 25.2647C293.44 25.013 293.586 24.8145 293.797 24.6143C293.824 24.5884 293.851 24.5625 293.879 24.5358C294.242 24.2059 294.78 23.9423 295.32 23.9054C296.289 23.8891 297.15 23.9708 297.93 24.5033C297.989 24.5417 297.989 24.5417 298.05 24.5808C298.362 24.7861 298.599 25.0199 298.843 25.2803C298.897 25.3331 298.951 25.3855 299.006 25.4376C299.409 25.8262 299.409 25.8262 299.409 25.9463C299.435 25.9562 299.461 25.9661 299.487 25.9762C299.585 26.0212 299.641 26.0649 299.716 26.1336C299.842 26.2444 299.974 26.3422 300.116 26.4389C300.329 26.5851 300.532 26.7387 300.734 26.8965C300.824 26.9665 300.915 27.035 301.007 27.1026C301.151 27.2083 301.289 27.3183 301.427 27.429C301.673 27.6263 301.92 27.8154 302.187 27.9916C302.302 28.0706 302.402 28.1582 302.504 28.2484C302.632 28.3539 302.774 28.4443 302.915 28.5376C303.005 28.6007 303.082 28.6645 303.161 28.7375C303.847 29.3383 304.952 29.6375 305.913 29.6569C307.076 29.6666 308.109 29.3484 308.979 28.6843C309.009 28.6612 309.04 28.6382 309.072 28.6144C309.85 27.9944 310.279 27.0621 310.337 26.1688C310.374 25.1223 309.939 24.1926 309.109 23.4238C308.925 23.2616 308.725 23.1227 308.517 22.984C308.396 22.9008 308.29 22.8105 308.182 22.7161C308.028 22.584 307.859 22.4657 307.693 22.345C307.616 22.289 307.539 22.233 307.462 22.177C307.435 22.1578 307.409 22.1386 307.382 22.1189C307.189 21.9787 307 21.8359 306.813 21.691C306.728 21.6261 306.643 21.5626 306.556 21.4994C306.383 21.3716 306.217 21.2376 306.051 21.104C305.821 20.92 305.587 20.7468 305.34 20.5794C305.221 20.4957 305.116 20.4048 305.009 20.3105C304.923 20.2402 304.832 20.18 304.737 20.1188C304.583 20.019 304.447 19.9126 304.312 19.7942C304.178 19.6797 304.033 19.5764 303.889 19.4713C303.782 19.3928 303.675 19.3141 303.568 19.2355C303.54 19.2146 303.512 19.1936 303.482 19.1721C303.285 19.0266 303.09 18.879 302.896 18.7297C302.812 18.6653 302.727 18.6022 302.641 18.5394C302.497 18.4328 302.358 18.322 302.219 18.2105C301.973 18.0134 301.726 17.8243 301.459 17.6481C301.344 17.569 301.244 17.4815 301.142 17.3912C301.048 17.3138 300.947 17.2461 300.844 17.1773C300.683 17.0699 300.538 16.9578 300.395 16.8331C300.241 16.701 300.072 16.5827 299.906 16.462C299.829 16.406 299.752 16.35 299.675 16.294C299.649 16.2749 299.623 16.2558 299.596 16.2362C299.401 16.0944 299.21 15.9497 299.021 15.8024C298.931 15.7329 298.931 15.7329 298.831 15.6743C298.806 15.6575 298.782 15.6407 298.756 15.6233C298.756 15.5989 298.756 15.5745 298.756 15.5493C298.731 15.5398 298.705 15.5303 298.679 15.5205C298.574 15.4714 298.505 15.4179 298.421 15.3451C298.391 15.3195 298.361 15.2938 298.33 15.2674C298.299 15.2406 298.269 15.2139 298.237 15.1863C298.206 15.1599 298.176 15.1336 298.144 15.1064C298.085 15.0551 298.025 15.0038 297.966 14.9523C297.867 14.8671 297.768 14.7827 297.669 14.6983C297.64 14.6736 297.611 14.6488 297.582 14.6233C297.446 14.5058 297.31 14.3921 297.16 14.2867C297.063 14.2178 296.992 14.1557 296.91 14.0716C296.821 13.9813 296.74 13.9116 296.636 13.8358C296.272 13.5699 295.969 13.2801 295.684 12.9531C295.621 12.8817 295.558 12.8107 295.494 12.7398C295.256 12.4723 295.022 12.2029 294.801 11.9246C294.744 11.8535 294.685 11.7835 294.623 11.7151C293.958 10.9499 293.704 9.81504 293.455 8.89858C293.447 8.87007 293.439 8.84157 293.431 8.8122C293.406 8.71486 293.384 8.61726 293.362 8.51933C293.357 8.49649 293.351 8.47365 293.346 8.45011C293.23 7.95369 293.213 7.46723 293.217 6.96205C293.218 6.83356 293.218 6.7051 293.218 6.57661C293.218 5.97826 293.242 5.38634 293.414 4.80314C293.423 4.7709 293.433 4.73865 293.442 4.70544C293.915 3.14137 295.08 1.76264 296.706 0.919294C297.905 0.318706 299.184 0.000987272 300.575 7.56532e-05Z" fill="url(#paint9_linear_803_980)"/>
<defs>
<linearGradient id="paint0_linear_803_980" x1="-286.005" y1="-48.351" x2="115.008" y2="341.561" gradientUnits="userSpaceOnUse">
<stop stop-color="#FDDF65"/>
<stop offset="0.5" stop-color="#FFCC4D"/>
<stop offset="1" stop-color="#FFB44D"/>
</linearGradient>
<linearGradient id="paint1_linear_803_980" x1="-286.005" y1="-48.351" x2="115.008" y2="341.561" gradientUnits="userSpaceOnUse">
<stop stop-color="#FDDF65"/>
<stop offset="0.5" stop-color="#FFCC4D"/>
<stop offset="1" stop-color="#FFB44D"/>
</linearGradient>
<linearGradient id="paint2_linear_803_980" x1="-286.005" y1="-48.351" x2="115.008" y2="341.561" gradientUnits="userSpaceOnUse">
<stop stop-color="#FDDF65"/>
<stop offset="0.5" stop-color="#FFCC4D"/>
<stop offset="1" stop-color="#FFB44D"/>
</linearGradient>
<linearGradient id="paint3_linear_803_980" x1="-286.005" y1="-48.351" x2="115.008" y2="341.561" gradientUnits="userSpaceOnUse">
<stop stop-color="#FDDF65"/>
<stop offset="0.5" stop-color="#FFCC4D"/>
<stop offset="1" stop-color="#FFB44D"/>
</linearGradient>
<linearGradient id="paint4_linear_803_980" x1="-286.005" y1="-48.351" x2="115.008" y2="341.561" gradientUnits="userSpaceOnUse">
<stop stop-color="#FDDF65"/>
<stop offset="0.5" stop-color="#FFCC4D"/>
<stop offset="1" stop-color="#FFB44D"/>
</linearGradient>
<linearGradient id="paint5_linear_803_980" x1="-286.005" y1="-48.351" x2="115.008" y2="341.561" gradientUnits="userSpaceOnUse">
<stop stop-color="#FDDF65"/>
<stop offset="0.5" stop-color="#FFCC4D"/>
<stop offset="1" stop-color="#FFB44D"/>
</linearGradient>
<linearGradient id="paint6_linear_803_980" x1="-286.005" y1="-48.351" x2="115.008" y2="341.561" gradientUnits="userSpaceOnUse">
<stop stop-color="#FDDF65"/>
<stop offset="0.5" stop-color="#FFCC4D"/>
<stop offset="1" stop-color="#FFB44D"/>
</linearGradient>
<linearGradient id="paint7_linear_803_980" x1="-286.005" y1="-48.351" x2="115.008" y2="341.561" gradientUnits="userSpaceOnUse">
<stop stop-color="#FDDF65"/>
<stop offset="0.5" stop-color="#FFCC4D"/>
<stop offset="1" stop-color="#FFB44D"/>
</linearGradient>
<linearGradient id="paint8_linear_803_980" x1="-286.005" y1="-48.351" x2="115.008" y2="341.561" gradientUnits="userSpaceOnUse">
<stop stop-color="#FDDF65"/>
<stop offset="0.5" stop-color="#FFCC4D"/>
<stop offset="1" stop-color="#FFB44D"/>
</linearGradient>
<linearGradient id="paint9_linear_803_980" x1="-286.005" y1="-48.351" x2="115.008" y2="341.561" gradientUnits="userSpaceOnUse">
<stop stop-color="#FDDF65"/>
<stop offset="0.5" stop-color="#FFCC4D"/>
<stop offset="1" stop-color="#FFB44D"/>
</linearGradient>
</defs>
</svg>
